# xmcd
#
# Track frame offsets: 
#        150
#        21810
#        37155
#        48063
#        64084
#        76723
#        94611
#        110689
#        126596
#        143464
#        160565
#        174039
#        192173
#        206191
#        223211
#        236563
#
# Disc length: 3318 seconds
#
# Revision: 1
# Processed by: cddbd v1.5.2PL0 Copyright (c) Steve Scherf et al.
# Submitted via: ExactAudioCopy v0.99pb5
#
DISCID=d50cf410
DTITLE=Various Artist - Country Made in Germany - Teddybär
DYEAR=2004
DGENRE=Country
TTITLE0=Jonny Hill - Rufe Teddybär eins-vier
TTITLE1=Larry Schuba and Western Union - Auf Der Autobahn
TTITLE2=Freddy Quinn - Kann Liebe alles verzeih'n
TTITLE3=Dagmar "The Lady" - Liebe lebt länger
TTITLE4=Rheinstone Cowboys - Eisen Im Feuer
TTITLE5=Nashville Music Company - Unten am Fluss
TTITLE6=Mark Bender - So Wär' Ich Ohne Dich (Radio Version))
TTITLE7=Sasja Velt - Ich Kann Nicht Lachen, Wenn Du Traurig Bist
TTITLE8=Jan Hayston - Du Bist Das "A" und "O" Für Mich
TTITLE9=Peter Sebastian - Etwas Ruhe
TTITLE10=Mark Bender - Der Regenmann
TTITLE11=Anne Karin - Er War Da, Als Ich Dich Brauchte
TTITLE12=Peter Held - Der Spieler
TTITLE13=Gunter Gabriel - Hey Lisa
TTITLE14=Freddy Quinn - Green Green Gras Of Home
TTITLE15=Gudrun Lange and Kactus - Ich Hab' es Gern
EXTD=YEAR: 2004
EXTT0=
EXTT1=
EXTT2=
EXTT3=
EXTT4=
EXTT5=
EXTT6=
EXTT7=
EXTT8=
EXTT9=
EXTT10=
EXTT11=
EXTT12=
EXTT13=
EXTT14=
EXTT15=
PLAYORDER=
